<?xml version="1.0" encoding="UTF-8" standalone="no"?><!DOCTYPE svg PUBLIC "-//W3C//DTD SVG 1.1//EN" "http://www.w3.org/Graphics/SVG/1.1/DTD/svg11.dtd"><svg width="100%" height="100%" viewBox="0 0 18 18" version="1.1" xmlns="http://www.w3.org/2000/svg" xmlns:xlink="http://www.w3.org/1999/xlink" xml:space="preserve" xmlns:serif="http://www.serif.com/" style="fill-rule:evenodd;clip-rule:evenodd;stroke-linejoin:round;stroke-miterlimit:1.41421;"><g id="thin"><path d="M9.051,8.001l0.051,0.004l0.05,0.007l0.049,0.008l0.049,0.012l0.047,0.013l0.047,0.016l0.045,0.018l0.044,0.02l0.043,0.022l0.042,0.024l0.041,0.026l0.039,0.028l0.038,0.029l0.036,0.032l0.035,0.033l0.033,0.035l0.032,0.036l0.029,0.038l0.028,0.039l0.026,0.041l0.024,0.042l0.022,0.043l0.02,0.044l0.018,0.045l0.016,0.047l0.013,0.047l0.012,0.049l0.008,0.049l0.007,0.05l0.004,0.051l0.001,0.051l-0.001,0.051l-0.004,0.051l-0.007,0.05l-0.008,0.049l-0.012,0.049l-0.013,0.047l-0.016,0.047l-0.018,0.045l-0.02,0.044l-0.022,0.043l-0.024,0.042l-0.026,0.041l-0.028,0.039l-0.029,0.038l-0.032,0.036l-0.033,0.035l-0.035,0.033l-0.036,0.032l-0.038,0.029l-0.039,0.028l-0.041,0.026l-0.042,0.024l-0.043,0.022l-0.044,0.02l-0.045,0.018l-0.047,0.016l-0.047,0.013l-0.049,0.012l-0.049,0.008l-0.05,0.007l-0.051,0.004l-0.051,0.001l-0.051,-0.001l-0.051,-0.004l-0.05,-0.007l-0.049,-0.008l-0.049,-0.012l-0.047,-0.013l-0.047,-0.016l-0.045,-0.018l-0.044,-0.02l-0.043,-0.022l-0.042,-0.024l-0.041,-0.026l-0.039,-0.028l-0.038,-0.029l-0.036,-0.032l-0.035,-0.033l-0.033,-0.035l-0.032,-0.036l-0.029,-0.038l-0.028,-0.039l-0.026,-0.041l-0.024,-0.042l-0.022,-0.043l-0.02,-0.044l-0.018,-0.045l-0.016,-0.047l-0.013,-0.047l-0.012,-0.049l-0.008,-0.049l-0.007,-0.05l-0.004,-0.051l-0.001,-0.051l0.001,-0.051l0.004,-0.051l0.007,-0.05l0.008,-0.049l0.012,-0.049l0.013,-0.047l0.016,-0.047l0.018,-0.045l0.02,-0.044l0.022,-0.043l0.024,-0.042l0.026,-0.041l0.028,-0.039l0.029,-0.038l0.032,-0.036l0.033,-0.035l0.035,-0.033l0.036,-0.032l0.038,-0.029l0.039,-0.028l0.041,-0.026l0.042,-0.024l0.043,-0.022l0.044,-0.02l0.045,-0.018l0.047,-0.016l0.047,-0.013l0.049,-0.012l0.049,-0.008l0.05,-0.007l0.051,-0.004l0.051,-0.001l0.051,0.001Zm-0.072,0.6l-0.021,0.001l-0.019,0.003l-0.02,0.003l-0.019,0.005l-0.019,0.005l-0.018,0.006l-0.018,0.007l-0.018,0.008l-0.017,0.009l-0.017,0.01l-0.016,0.01l-0.016,0.011l-0.015,0.012l-0.015,0.013l-0.014,0.013l-0.013,0.014l-0.013,0.015l-0.012,0.015l-0.011,0.016l-0.01,0.016l-0.01,0.017l-0.009,0.017l-0.008,0.018l-0.007,0.018l-0.006,0.018l-0.005,0.019l-0.005,0.019l-0.003,0.02l-0.003,0.019l-0.001,0.021l-0.001,0.021l0.001,0.021l0.001,0.021l0.003,0.019l0.003,0.02l0.005,0.019l0.005,0.019l0.006,0.018l0.007,0.018l0.008,0.018l0.009,0.017l0.01,0.017l0.01,0.016l0.011,0.016l0.012,0.015l0.013,0.015l0.013,0.014l0.014,0.013l0.015,0.013l0.015,0.012l0.016,0.011l0.016,0.01l0.017,0.01l0.017,0.009l0.018,0.008l0.018,0.007l0.018,0.006l0.019,0.005l0.019,0.005l0.02,0.003l0.019,0.003l0.021,0.001l0.021,0.001l0.021,-0.001l0.021,-0.001l0.019,-0.003l0.02,-0.003l0.019,-0.005l0.019,-0.005l0.018,-0.006l0.018,-0.007l0.018,-0.008l0.017,-0.009l0.017,-0.01l0.016,-0.01l0.016,-0.011l0.015,-0.012l0.015,-0.013l0.014,-0.013l0.013,-0.014l0.013,-0.015l0.012,-0.015l0.011,-0.016l0.01,-0.016l0.01,-0.017l0.009,-0.017l0.008,-0.018l0.007,-0.018l0.006,-0.018l0.005,-0.019l0.005,-0.019l0.003,-0.02l0.003,-0.019l0.001,-0.021l0.001,-0.021l-0.001,-0.021l-0.001,-0.021l-0.003,-0.019l-0.003,-0.02l-0.005,-0.019l-0.005,-0.019l-0.006,-0.018l-0.007,-0.018l-0.008,-0.018l-0.009,-0.017l-0.01,-0.017l-0.01,-0.016l-0.011,-0.016l-0.012,-0.015l-0.013,-0.015l-0.013,-0.014l-0.014,-0.013l-0.015,-0.013l-0.015,-0.012l-0.016,-0.011l-0.016,-0.01l-0.017,-0.01l-0.017,-0.009l-0.018,-0.008l-0.018,-0.007l-0.018,-0.006l-0.019,-0.005l-0.019,-0.005l-0.02,-0.003l-0.019,-0.003l-0.021,-0.001l-0.021,-0.001l-0.021,0.001Z"/><path d="M9.051,0.001l0.051,0.004l0.05,0.007l0.049,0.008l0.049,0.012l0.047,0.013l0.047,0.016l0.045,0.018l0.044,0.02l0.043,0.022l0.042,0.024l0.041,0.026l0.039,0.028l0.038,0.029l0.036,0.032l0.035,0.033l0.033,0.035l0.032,0.036l0.029,0.038l0.028,0.039l0.026,0.041l0.024,0.042l0.022,0.043l0.02,0.044l0.018,0.045l0.016,0.047l0.013,0.047l0.012,0.049l0.008,0.049l0.007,0.05l0.004,0.051l0.001,0.051l0,1.071l0.072,0.011l0.071,0.011l0.142,0.025l0.142,0.028l0.14,0.03l0.139,0.034l0.138,0.036l0.137,0.039l0.135,0.041l0.135,0.044l0.133,0.047l0.132,0.05l0.131,0.052l0.13,0.054l0.128,0.057l0.127,0.06l0.125,0.062l0.124,0.064l0.123,0.067l0.121,0.069l0.119,0.072l0.118,0.073l0.117,0.076l0.114,0.079l0.114,0.08l0.111,0.083l0.11,0.084l0.108,0.087l0.106,0.089l0.105,0.091l0.102,0.093l0.101,0.095l0.099,0.097l0.097,0.099l0.095,0.101l0.093,0.102l0.091,0.105l0.089,0.106l0.087,0.108l0.084,0.11l0.083,0.111l0.08,0.114l0.079,0.114l0.076,0.117l0.073,0.118l0.072,0.119l0.069,0.121l0.067,0.123l0.064,0.124l0.062,0.125l0.06,0.127l0.057,0.128l0.054,0.13l0.052,0.131l0.05,0.132l0.047,0.133l0.044,0.135l0.041,0.135l0.039,0.137l0.036,0.138l0.034,0.139l0.03,0.14l0.028,0.142l0.025,0.142l0.011,0.071l0.011,0.072l1.071,0l0.051,0.001l0.051,0.004l0.05,0.007l0.049,0.008l0.049,0.012l0.047,0.013l0.047,0.016l0.045,0.018l0.044,0.02l0.043,0.022l0.042,0.024l0.041,0.026l0.039,0.028l0.038,0.029l0.036,0.032l0.035,0.033l0.033,0.035l0.032,0.036l0.029,0.038l0.028,0.039l0.026,0.041l0.024,0.042l0.022,0.043l0.02,0.044l0.018,0.045l0.016,0.047l0.013,0.047l0.012,0.049l0.008,0.049l0.007,0.05l0.004,0.051l0.001,0.051l-0.001,0.051l-0.004,0.051l-0.007,0.05l-0.008,0.049l-0.012,0.049l-0.013,0.047l-0.016,0.047l-0.018,0.045l-0.02,0.044l-0.022,0.043l-0.024,0.042l-0.026,0.041l-0.028,0.039l-0.029,0.038l-0.032,0.036l-0.033,0.035l-0.035,0.033l-0.036,0.032l-0.038,0.029l-0.039,0.028l-0.041,0.026l-0.042,0.024l-0.043,0.022l-0.044,0.02l-0.045,0.018l-0.047,0.016l-0.047,0.013l-0.049,0.012l-0.049,0.008l-0.05,0.007l-0.051,0.004l-0.051,0.001l-1.071,0l-0.011,0.072l-0.011,0.071l-0.025,0.142l-0.028,0.142l-0.03,0.14l-0.034,0.139l-0.036,0.138l-0.039,0.137l-0.041,0.135l-0.044,0.135l-0.047,0.133l-0.05,0.132l-0.052,0.131l-0.054,0.13l-0.057,0.128l-0.06,0.127l-0.062,0.125l-0.064,0.124l-0.067,0.123l-0.069,0.121l-0.072,0.119l-0.073,0.118l-0.076,0.117l-0.079,0.114l-0.08,0.114l-0.083,0.111l-0.084,0.11l-0.087,0.108l-0.089,0.106l-0.091,0.105l-0.093,0.102l-0.095,0.101l-0.097,0.099l-0.099,0.097l-0.101,0.095l-0.102,0.093l-0.105,0.091l-0.106,0.089l-0.108,0.087l-0.11,0.084l-0.111,0.083l-0.114,0.08l-0.114,0.079l-0.117,0.076l-0.118,0.073l-0.119,0.072l-0.121,0.069l-0.123,0.067l-0.124,0.064l-0.125,0.062l-0.127,0.06l-0.128,0.057l-0.13,0.054l-0.131,0.052l-0.132,0.05l-0.133,0.047l-0.135,0.044l-0.135,0.041l-0.137,0.039l-0.138,0.036l-0.139,0.034l-0.14,0.03l-0.142,0.028l-0.142,0.025l-0.071,0.011l-0.072,0.011l0,1.071l-0.001,0.051l-0.004,0.051l-0.007,0.05l-0.008,0.049l-0.012,0.049l-0.013,0.047l-0.016,0.047l-0.018,0.045l-0.02,0.044l-0.022,0.043l-0.024,0.042l-0.026,0.041l-0.028,0.039l-0.029,0.038l-0.032,0.036l-0.033,0.035l-0.035,0.033l-0.036,0.032l-0.038,0.029l-0.039,0.028l-0.041,0.026l-0.042,0.024l-0.043,0.022l-0.044,0.02l-0.045,0.018l-0.047,0.016l-0.047,0.013l-0.049,0.012l-0.049,0.008l-0.05,0.007l-0.051,0.004l-0.051,0.001l-0.051,-0.001l-0.051,-0.004l-0.05,-0.007l-0.049,-0.008l-0.049,-0.012l-0.047,-0.013l-0.047,-0.016l-0.045,-0.018l-0.044,-0.02l-0.043,-0.022l-0.042,-0.024l-0.041,-0.026l-0.039,-0.028l-0.038,-0.029l-0.036,-0.032l-0.035,-0.033l-0.033,-0.035l-0.032,-0.036l-0.029,-0.038l-0.028,-0.039l-0.026,-0.041l-0.024,-0.042l-0.022,-0.043l-0.02,-0.044l-0.018,-0.045l-0.016,-0.047l-0.013,-0.047l-0.012,-0.049l-0.008,-0.049l-0.007,-0.05l-0.004,-0.051l-0.001,-0.051l0,-1.071l-0.072,-0.011l-0.071,-0.011l-0.142,-0.025l-0.142,-0.028l-0.14,-0.03l-0.139,-0.034l-0.138,-0.036l-0.137,-0.039l-0.135,-0.041l-0.135,-0.044l-0.133,-0.047l-0.132,-0.05l-0.131,-0.052l-0.13,-0.054l-0.128,-0.057l-0.127,-0.06l-0.125,-0.062l-0.124,-0.064l-0.123,-0.067l-0.121,-0.069l-0.119,-0.072l-0.118,-0.073l-0.117,-0.076l-0.114,-0.079l-0.114,-0.08l-0.111,-0.083l-0.11,-0.084l-0.108,-0.087l-0.106,-0.089l-0.105,-0.091l-0.102,-0.093l-0.101,-0.095l-0.099,-0.097l-0.097,-0.099l-0.095,-0.101l-0.093,-0.102l-0.091,-0.105l-0.089,-0.106l-0.087,-0.108l-0.084,-0.11l-0.083,-0.111l-0.08,-0.114l-0.079,-0.114l-0.076,-0.117l-0.073,-0.118l-0.072,-0.119l-0.069,-0.121l-0.067,-0.123l-0.064,-0.124l-0.062,-0.125l-0.06,-0.127l-0.057,-0.128l-0.054,-0.13l-0.052,-0.131l-0.05,-0.132l-0.047,-0.133l-0.044,-0.135l-0.041,-0.135l-0.039,-0.137l-0.036,-0.138l-0.034,-0.139l-0.03,-0.14l-0.028,-0.142l-0.025,-0.142l-0.011,-0.071l-0.011,-0.072l-1.071,0l-0.006,0l-0.052,-0.002l-0.05,-0.004l-0.05,-0.006l-0.049,-0.009l-0.048,-0.012l-0.047,-0.013l-0.046,-0.016l-0.045,-0.018l-0.044,-0.021l-0.043,-0.022l-0.042,-0.024l-0.04,-0.026l-0.039,-0.028l-0.038,-0.03l-0.036,-0.031l-0.034,-0.033l-0.033,-0.035l-0.031,-0.036l-0.03,-0.038l-0.027,-0.039l-0.026,-0.04l-0.024,-0.042l-0.022,-0.043l-0.02,-0.044l-0.018,-0.046l-0.015,-0.046l-0.014,-0.047l-0.011,-0.048l-0.009,-0.049l-0.006,-0.05l-0.004,-0.051l-0.001,-0.051l0.001,-0.051l0.004,-0.051l0.007,-0.05l0.008,-0.049l0.012,-0.049l0.013,-0.047l0.016,-0.047l0.018,-0.045l0.02,-0.044l0.022,-0.043l0.024,-0.042l0.026,-0.041l0.028,-0.039l0.029,-0.038l0.032,-0.036l0.033,-0.035l0.035,-0.033l0.036,-0.032l0.038,-0.029l0.039,-0.028l0.041,-0.026l0.042,-0.024l0.043,-0.022l0.044,-0.02l0.045,-0.018l0.047,-0.016l0.047,-0.013l0.049,-0.012l0.049,-0.008l0.05,-0.007l0.051,-0.004l0.051,-0.001l1.071,0l0.011,-0.072l0.011,-0.071l0.025,-0.142l0.028,-0.142l0.03,-0.14l0.034,-0.139l0.036,-0.138l0.039,-0.137l0.041,-0.135l0.044,-0.135l0.047,-0.133l0.05,-0.132l0.052,-0.131l0.054,-0.13l0.057,-0.128l0.06,-0.127l0.062,-0.125l0.064,-0.124l0.067,-0.123l0.069,-0.121l0.072,-0.119l0.073,-0.118l0.076,-0.117l0.079,-0.114l0.08,-0.114l0.083,-0.111l0.084,-0.11l0.087,-0.108l0.089,-0.106l0.091,-0.105l0.093,-0.102l0.095,-0.101l0.097,-0.099l0.099,-0.097l0.101,-0.095l0.102,-0.093l0.105,-0.091l0.106,-0.089l0.108,-0.087l0.11,-0.084l0.111,-0.083l0.114,-0.08l0.114,-0.079l0.117,-0.076l0.118,-0.073l0.119,-0.072l0.121,-0.069l0.123,-0.067l0.124,-0.064l0.125,-0.062l0.127,-0.06l0.128,-0.057l0.13,-0.054l0.131,-0.052l0.132,-0.05l0.133,-0.047l0.135,-0.044l0.135,-0.041l0.137,-0.039l0.138,-0.036l0.139,-0.034l0.14,-0.03l0.142,-0.028l0.142,-0.025l0.071,-0.011l0.072,-0.011l0,-1.071l0.001,-0.051l0.004,-0.051l0.007,-0.05l0.008,-0.049l0.012,-0.049l0.013,-0.047l0.016,-0.047l0.018,-0.045l0.02,-0.044l0.022,-0.043l0.024,-0.042l0.026,-0.041l0.028,-0.039l0.029,-0.038l0.032,-0.036l0.033,-0.035l0.035,-0.033l0.036,-0.032l0.038,-0.029l0.039,-0.028l0.041,-0.026l0.042,-0.024l0.043,-0.022l0.044,-0.02l0.045,-0.018l0.047,-0.016l0.047,-0.013l0.049,-0.012l0.049,-0.008l0.05,-0.007l0.051,-0.004l0.051,-0.001l0.051,0.001Zm-0.072,0.6l-0.021,0.001l-0.019,0.003l-0.02,0.003l-0.019,0.005l-0.019,0.005l-0.018,0.006l-0.018,0.007l-0.018,0.008l-0.017,0.009l-0.017,0.01l-0.016,0.01l-0.016,0.011l-0.015,0.012l-0.015,0.013l-0.014,0.013l-0.013,0.014l-0.013,0.015l-0.012,0.015l-0.011,0.016l-0.01,0.016l-0.01,0.017l-0.009,0.017l-0.008,0.018l-0.007,0.018l-0.006,0.018l-0.005,0.019l-0.005,0.019l-0.003,0.02l-0.003,0.019l-0.001,0.021l-0.001,0.029l0,1.063l-0.003,0.061l-0.009,0.06l-0.016,0.059l-0.021,0.057l-0.027,0.055l-0.032,0.052l-0.038,0.048l-0.042,0.044l-0.046,0.04l-0.05,0.034l-0.054,0.03l-0.056,0.023l-0.058,0.018l-0.06,0.013l-0.068,0.01l-0.064,0.01l-0.132,0.023l-0.129,0.025l-0.128,0.028l-0.127,0.031l-0.126,0.033l-0.125,0.035l-0.124,0.038l-0.123,0.04l-0.122,0.043l-0.12,0.045l-0.12,0.048l-0.118,0.05l-0.117,0.052l-0.116,0.054l-0.115,0.057l-0.113,0.059l-0.112,0.061l-0.111,0.063l-0.109,0.066l-0.108,0.067l-0.107,0.069l-0.105,0.072l-0.103,0.074l-0.102,0.075l-0.1,0.078l-0.099,0.079l-0.097,0.082l-0.096,0.083l-0.094,0.085l-0.092,0.087l-0.09,0.089l-0.089,0.09l-0.087,0.092l-0.085,0.094l-0.083,0.096l-0.082,0.097l-0.079,0.099l-0.078,0.1l-0.075,0.102l-0.074,0.103l-0.072,0.105l-0.069,0.107l-0.067,0.108l-0.066,0.109l-0.063,0.111l-0.061,0.112l-0.059,0.113l-0.057,0.115l-0.054,0.116l-0.052,0.117l-0.05,0.118l-0.048,0.12l-0.045,0.12l-0.043,0.122l-0.04,0.123l-0.038,0.124l-0.035,0.125l-0.033,0.126l-0.031,0.127l-0.028,0.128l-0.025,0.129l-0.023,0.132l-0.01,0.064l-0.01,0.068l-0.013,0.06l-0.018,0.058l-0.023,0.056l-0.03,0.054l-0.034,0.05l-0.04,0.046l-0.044,0.042l-0.048,0.038l-0.052,0.032l-0.055,0.027l-0.057,0.021l-0.059,0.016l-0.06,0.009l-0.061,0.003l-1.063,0l-0.029,0.001l-0.021,0.001l-0.019,0.003l-0.02,0.003l-0.019,0.005l-0.019,0.005l-0.018,0.006l-0.018,0.007l-0.018,0.008l-0.017,0.009l-0.017,0.01l-0.016,0.01l-0.016,0.011l-0.015,0.012l-0.015,0.013l-0.014,0.013l-0.013,0.014l-0.013,0.015l-0.012,0.015l-0.011,0.016l-0.01,0.016l-0.01,0.017l-0.009,0.017l-0.008,0.018l-0.007,0.018l-0.006,0.018l-0.005,0.019l-0.005,0.019l-0.003,0.02l-0.003,0.019l-0.001,0.021l-0.001,0.021l0.001,0.021l0.001,0.02l0.003,0.02l0.003,0.02l0.005,0.019l0.005,0.018l0.006,0.019l0.007,0.018l0.008,0.017l0.009,0.017l0.009,0.017l0.011,0.016l0.011,0.016l0.012,0.015l0.012,0.015l0.014,0.014l0.014,0.013l0.014,0.013l0.015,0.012l0.016,0.011l0.016,0.01l0.017,0.01l0.017,0.009l0.017,0.008l0.018,0.007l0.018,0.006l0.019,0.006l0.019,0.004l0.019,0.004l0.02,0.002l0.02,0.002l0.028,0.001l1.067,0l0.061,0.003l0.06,0.009l0.059,0.016l0.057,0.021l0.055,0.027l0.052,0.032l0.048,0.038l0.044,0.042l0.04,0.046l0.034,0.05l0.03,0.054l0.023,0.056l0.018,0.058l0.013,0.06l0.01,0.068l0.01,0.064l0.023,0.132l0.025,0.129l0.028,0.128l0.031,0.127l0.033,0.126l0.035,0.125l0.038,0.124l0.04,0.123l0.043,0.122l0.045,0.12l0.048,0.12l0.05,0.118l0.052,0.117l0.054,0.116l0.057,0.115l0.059,0.113l0.061,0.112l0.063,0.111l0.066,0.109l0.067,0.108l0.069,0.107l0.072,0.105l0.074,0.103l0.075,0.102l0.078,0.1l0.079,0.099l0.082,0.097l0.083,0.096l0.085,0.094l0.087,0.092l0.089,0.09l0.09,0.089l0.092,0.087l0.094,0.085l0.096,0.083l0.097,0.082l0.099,0.079l0.1,0.078l0.102,0.075l0.103,0.074l0.105,0.072l0.107,0.069l0.108,0.067l0.109,0.066l0.111,0.063l0.112,0.061l0.113,0.059l0.115,0.057l0.116,0.054l0.117,0.052l0.118,0.05l0.12,0.048l0.12,0.045l0.122,0.043l0.123,0.04l0.124,0.038l0.125,0.035l0.126,0.033l0.127,0.031l0.128,0.028l0.129,0.025l0.132,0.023l0.064,0.01l0.068,0.01l0.06,0.013l0.058,0.018l0.056,0.023l0.054,0.03l0.05,0.034l0.046,0.04l0.042,0.044l0.038,0.048l0.032,0.052l0.027,0.055l0.021,0.057l0.016,0.059l0.009,0.06l0.003,0.061l0,1.063l0.001,0.029l0.001,0.021l0.003,0.019l0.003,0.02l0.005,0.019l0.005,0.019l0.006,0.018l0.007,0.018l0.008,0.018l0.009,0.017l0.01,0.017l0.01,0.016l0.011,0.016l0.012,0.015l0.013,0.015l0.013,0.014l0.014,0.013l0.015,0.013l0.015,0.012l0.016,0.011l0.016,0.01l0.017,0.01l0.017,0.009l0.018,0.008l0.018,0.007l0.018,0.006l0.019,0.005l0.019,0.005l0.02,0.003l0.019,0.003l0.021,0.001l0.021,0.001l0.021,-0.001l0.021,-0.001l0.019,-0.003l0.02,-0.003l0.019,-0.005l0.019,-0.005l0.018,-0.006l0.018,-0.007l0.018,-0.008l0.017,-0.009l0.017,-0.01l0.016,-0.01l0.016,-0.011l0.015,-0.012l0.015,-0.013l0.014,-0.013l0.013,-0.014l0.013,-0.015l0.012,-0.015l0.011,-0.016l0.01,-0.016l0.01,-0.017l0.009,-0.017l0.008,-0.018l0.007,-0.018l0.006,-0.018l0.005,-0.019l0.005,-0.019l0.003,-0.02l0.003,-0.019l0.001,-0.021l0.001,-0.029l0,-1.063l0.003,-0.061l0.009,-0.06l0.016,-0.059l0.021,-0.057l0.027,-0.055l0.032,-0.052l0.038,-0.048l0.042,-0.044l0.046,-0.04l0.05,-0.034l0.054,-0.03l0.056,-0.023l0.058,-0.018l0.06,-0.013l0.068,-0.01l0.064,-0.01l0.132,-0.023l0.129,-0.025l0.128,-0.028l0.127,-0.031l0.126,-0.033l0.125,-0.035l0.124,-0.038l0.123,-0.04l0.122,-0.043l0.12,-0.045l0.12,-0.048l0.118,-0.05l0.117,-0.052l0.116,-0.054l0.115,-0.057l0.113,-0.059l0.112,-0.061l0.111,-0.063l0.109,-0.066l0.108,-0.067l0.107,-0.069l0.105,-0.072l0.103,-0.074l0.102,-0.075l0.1,-0.078l0.099,-0.079l0.097,-0.082l0.096,-0.083l0.094,-0.085l0.092,-0.087l0.09,-0.089l0.089,-0.09l0.087,-0.092l0.085,-0.094l0.083,-0.096l0.082,-0.097l0.079,-0.099l0.078,-0.1l0.075,-0.102l0.074,-0.103l0.072,-0.105l0.069,-0.107l0.067,-0.108l0.066,-0.109l0.063,-0.111l0.061,-0.112l0.059,-0.113l0.057,-0.115l0.054,-0.116l0.052,-0.117l0.05,-0.118l0.048,-0.12l0.045,-0.12l0.043,-0.122l0.04,-0.123l0.038,-0.124l0.035,-0.125l0.033,-0.126l0.031,-0.127l0.028,-0.128l0.025,-0.129l0.023,-0.132l0.01,-0.064l0.01,-0.068l0.013,-0.06l0.018,-0.058l0.023,-0.056l0.03,-0.054l0.034,-0.05l0.04,-0.046l0.044,-0.042l0.048,-0.038l0.052,-0.032l0.055,-0.027l0.057,-0.021l0.059,-0.016l0.06,-0.009l0.061,-0.003l1.063,0l0.029,-0.001l0.02,-0.001l0.02,-0.003l0.02,-0.003l0.019,-0.005l0.019,-0.005l0.018,-0.006l0.018,-0.007l0.018,-0.008l0.017,-0.009l0.017,-0.01l0.016,-0.01l0.016,-0.011l0.015,-0.012l0.015,-0.013l0.014,-0.013l0.013,-0.014l0.013,-0.015l0.012,-0.015l0.011,-0.016l0.01,-0.016l0.01,-0.017l0.009,-0.017l0.008,-0.018l0.007,-0.018l0.006,-0.018l0.005,-0.019l0.005,-0.019l0.003,-0.02l0.003,-0.019l0.001,-0.021l0.001,-0.021l-0.001,-0.021l-0.001,-0.021l-0.003,-0.019l-0.003,-0.02l-0.005,-0.019l-0.005,-0.019l-0.006,-0.018l-0.007,-0.018l-0.008,-0.018l-0.009,-0.017l-0.01,-0.017l-0.01,-0.016l-0.011,-0.016l-0.012,-0.015l-0.013,-0.015l-0.013,-0.014l-0.014,-0.013l-0.015,-0.013l-0.015,-0.012l-0.016,-0.011l-0.016,-0.01l-0.017,-0.01l-0.017,-0.009l-0.018,-0.008l-0.018,-0.007l-0.018,-0.006l-0.019,-0.005l-0.019,-0.005l-0.02,-0.003l-0.019,-0.003l-0.021,-0.001l-0.029,-0.001l-1.063,0l-0.061,-0.003l-0.06,-0.009l-0.059,-0.016l-0.057,-0.021l-0.055,-0.027l-0.052,-0.032l-0.048,-0.038l-0.044,-0.042l-0.04,-0.046l-0.034,-0.05l-0.03,-0.054l-0.023,-0.056l-0.018,-0.058l-0.013,-0.06l-0.01,-0.068l-0.01,-0.064l-0.023,-0.132l-0.025,-0.129l-0.028,-0.128l-0.031,-0.127l-0.033,-0.126l-0.035,-0.125l-0.038,-0.124l-0.04,-0.123l-0.043,-0.122l-0.045,-0.12l-0.048,-0.12l-0.05,-0.118l-0.052,-0.117l-0.054,-0.116l-0.057,-0.115l-0.059,-0.113l-0.061,-0.112l-0.063,-0.111l-0.066,-0.109l-0.067,-0.108l-0.069,-0.107l-0.072,-0.105l-0.074,-0.103l-0.075,-0.102l-0.078,-0.1l-0.079,-0.099l-0.082,-0.097l-0.083,-0.096l-0.085,-0.094l-0.087,-0.092l-0.089,-0.09l-0.09,-0.089l-0.092,-0.087l-0.094,-0.085l-0.096,-0.083l-0.097,-0.082l-0.099,-0.079l-0.1,-0.078l-0.102,-0.075l-0.103,-0.074l-0.105,-0.072l-0.107,-0.069l-0.108,-0.067l-0.109,-0.066l-0.111,-0.063l-0.112,-0.061l-0.113,-0.059l-0.115,-0.057l-0.116,-0.054l-0.117,-0.052l-0.118,-0.05l-0.12,-0.048l-0.12,-0.045l-0.122,-0.043l-0.123,-0.04l-0.124,-0.038l-0.125,-0.035l-0.126,-0.033l-0.127,-0.031l-0.128,-0.028l-0.129,-0.025l-0.132,-0.023l-0.064,-0.01l-0.068,-0.01l-0.06,-0.013l-0.058,-0.018l-0.056,-0.023l-0.054,-0.03l-0.05,-0.034l-0.046,-0.04l-0.042,-0.044l-0.038,-0.048l-0.032,-0.052l-0.027,-0.055l-0.021,-0.057l-0.016,-0.059l-0.009,-0.06l-0.003,-0.061l0,-1.063l-0.001,-0.029l-0.001,-0.02l-0.003,-0.02l-0.003,-0.02l-0.005,-0.019l-0.005,-0.019l-0.006,-0.018l-0.007,-0.018l-0.008,-0.018l-0.009,-0.017l-0.01,-0.017l-0.01,-0.016l-0.011,-0.016l-0.012,-0.015l-0.013,-0.015l-0.013,-0.014l-0.014,-0.013l-0.015,-0.013l-0.015,-0.012l-0.016,-0.011l-0.016,-0.01l-0.017,-0.01l-0.017,-0.009l-0.018,-0.008l-0.018,-0.007l-0.018,-0.006l-0.019,-0.005l-0.019,-0.005l-0.02,-0.003l-0.019,-0.003l-0.021,-0.001l-0.021,-0.001l-0.021,0.001Zm1.084,2.903l0.062,0.009l0.097,0.021l0.102,0.024l0.101,0.025l0.1,0.028l0.1,0.029l0.099,0.031l0.098,0.033l0.097,0.034l0.097,0.036l0.095,0.038l0.095,0.04l0.094,0.041l0.093,0.043l0.092,0.045l0.09,0.046l0.091,0.048l0.089,0.049l0.088,0.051l0.087,0.053l0.086,0.053l0.084,0.056l0.084,0.057l0.083,0.058l0.082,0.06l0.08,0.062l0.079,0.062l0.079,0.064l0.077,0.066l0.075,0.067l0.075,0.068l0.073,0.069l0.072,0.071l0.071,0.072l0.069,0.073l0.068,0.075l0.067,0.075l0.066,0.077l0.064,0.079l0.062,0.079l0.062,0.08l0.06,0.082l0.058,0.083l0.057,0.084l0.056,0.084l0.053,0.086l0.053,0.087l0.051,0.088l0.049,0.089l0.048,0.091l0.046,0.09l0.045,0.092l0.043,0.093l0.041,0.094l0.04,0.095l0.038,0.095l0.036,0.097l0.034,0.097l0.033,0.098l0.031,0.099l0.029,0.1l0.028,0.1l0.025,0.101l0.024,0.102l0.021,0.097l0.009,0.062l0.004,0.063l-0.003,0.062l-0.01,0.062l-0.017,0.061l-0.022,0.059l-0.028,0.056l-0.035,0.053l-0.039,0.048l-0.045,0.045l-0.048,0.039l-0.053,0.035l-0.056,0.028l-0.059,0.023l-0.06,0.016l-0.062,0.01l-0.063,0.003l-0.892,0l-0.029,0.001l-0.021,0.001l-0.019,0.003l-0.02,0.003l-0.019,0.005l-0.019,0.005l-0.018,0.006l-0.018,0.007l-0.018,0.008l-0.017,0.009l-0.017,0.01l-0.016,0.01l-0.016,0.011l-0.015,0.012l-0.015,0.013l-0.014,0.013l-0.013,0.014l-0.013,0.015l-0.012,0.015l-0.011,0.016l-0.01,0.016l-0.01,0.017l-0.009,0.017l-0.008,0.018l-0.007,0.018l-0.006,0.018l-0.005,0.019l-0.005,0.019l-0.003,0.02l-0.003,0.019l-0.001,0.021l-0.001,0.021l0.001,0.021l0.001,0.02l0.003,0.02l0.003,0.02l0.005,0.019l0.005,0.018l0.006,0.019l0.007,0.018l0.008,0.017l0.009,0.017l0.009,0.017l0.011,0.016l0.011,0.016l0.012,0.015l0.012,0.015l0.014,0.014l0.013,0.013l0.015,0.013l0.015,0.012l0.016,0.011l0.016,0.01l0.017,0.01l0.017,0.009l0.017,0.008l0.018,0.007l0.018,0.006l0.019,0.006l0.019,0.004l0.019,0.004l0.02,0.002l0.02,0.002l0.028,0.001l0.896,0l0.063,0.003l0.062,0.01l0.06,0.016l0.059,0.023l0.056,0.028l0.053,0.035l0.048,0.039l0.045,0.045l0.039,0.048l0.035,0.053l0.028,0.056l0.022,0.059l0.017,0.061l0.01,0.062l0.003,0.062l-0.004,0.063l-0.009,0.062l-0.021,0.097l-0.024,0.102l-0.025,0.101l-0.028,0.1l-0.029,0.1l-0.031,0.099l-0.033,0.098l-0.034,0.097l-0.036,0.097l-0.038,0.095l-0.04,0.095l-0.041,0.094l-0.043,0.093l-0.045,0.092l-0.046,0.09l-0.048,0.091l-0.049,0.089l-0.051,0.088l-0.053,0.087l-0.053,0.086l-0.056,0.084l-0.057,0.084l-0.058,0.083l-0.06,0.082l-0.062,0.08l-0.062,0.079l-0.064,0.079l-0.066,0.077l-0.067,0.075l-0.068,0.075l-0.069,0.073l-0.071,0.072l-0.072,0.071l-0.073,0.069l-0.075,0.068l-0.075,0.067l-0.077,0.066l-0.079,0.064l-0.079,0.062l-0.08,0.062l-0.082,0.06l-0.083,0.058l-0.084,0.057l-0.084,0.056l-0.086,0.053l-0.087,0.053l-0.088,0.051l-0.089,0.049l-0.091,0.048l-0.09,0.046l-0.092,0.045l-0.093,0.043l-0.094,0.041l-0.095,0.04l-0.095,0.038l-0.097,0.036l-0.097,0.034l-0.098,0.033l-0.099,0.031l-0.1,0.029l-0.1,0.028l-0.101,0.025l-0.102,0.024l-0.097,0.021l-0.062,0.009l-0.063,0.004l-0.062,-0.003l-0.062,-0.01l-0.061,-0.017l-0.059,-0.022l-0.056,-0.028l-0.053,-0.035l-0.048,-0.039l-0.045,-0.045l-0.039,-0.048l-0.035,-0.053l-0.028,-0.056l-0.023,-0.059l-0.016,-0.06l-0.01,-0.062l-0.003,-0.063l0,-0.892l-0.001,-0.029l-0.001,-0.021l-0.003,-0.019l-0.003,-0.02l-0.005,-0.019l-0.005,-0.019l-0.006,-0.018l-0.007,-0.018l-0.008,-0.018l-0.009,-0.017l-0.01,-0.017l-0.01,-0.016l-0.011,-0.016l-0.012,-0.015l-0.013,-0.015l-0.013,-0.014l-0.014,-0.013l-0.015,-0.013l-0.015,-0.012l-0.016,-0.011l-0.016,-0.01l-0.017,-0.01l-0.017,-0.009l-0.018,-0.008l-0.018,-0.007l-0.018,-0.006l-0.019,-0.005l-0.019,-0.005l-0.02,-0.003l-0.019,-0.003l-0.021,-0.001l-0.021,-0.001l-0.021,0.001l-0.021,0.001l-0.019,0.003l-0.02,0.003l-0.019,0.005l-0.019,0.005l-0.018,0.006l-0.018,0.007l-0.018,0.008l-0.017,0.009l-0.017,0.01l-0.016,0.01l-0.016,0.011l-0.015,0.012l-0.015,0.013l-0.014,0.013l-0.013,0.014l-0.013,0.015l-0.012,0.015l-0.011,0.016l-0.01,0.016l-0.01,0.017l-0.009,0.017l-0.008,0.018l-0.007,0.018l-0.006,0.018l-0.005,0.019l-0.005,0.019l-0.003,0.02l-0.003,0.019l-0.001,0.021l-0.001,0.029l0,0.892l-0.003,0.063l-0.01,0.062l-0.016,0.06l-0.023,0.059l-0.028,0.056l-0.035,0.053l-0.039,0.048l-0.045,0.045l-0.048,0.039l-0.053,0.035l-0.056,0.028l-0.059,0.022l-0.061,0.017l-0.062,0.01l-0.062,0.003l-0.063,-0.004l-0.062,-0.009l-0.097,-0.021l-0.102,-0.024l-0.101,-0.025l-0.1,-0.028l-0.1,-0.029l-0.099,-0.031l-0.098,-0.033l-0.097,-0.034l-0.097,-0.036l-0.095,-0.038l-0.095,-0.04l-0.094,-0.041l-0.093,-0.043l-0.091,-0.045l-0.091,-0.046l-0.091,-0.048l-0.089,-0.049l-0.088,-0.051l-0.087,-0.053l-0.086,-0.053l-0.084,-0.056l-0.084,-0.057l-0.083,-0.058l-0.082,-0.06l-0.08,-0.062l-0.079,-0.062l-0.079,-0.064l-0.077,-0.066l-0.075,-0.067l-0.075,-0.068l-0.073,-0.069l-0.072,-0.071l-0.071,-0.072l-0.069,-0.073l-0.068,-0.075l-0.067,-0.075l-0.066,-0.077l-0.064,-0.079l-0.062,-0.079l-0.062,-0.08l-0.06,-0.082l-0.058,-0.083l-0.057,-0.084l-0.056,-0.084l-0.053,-0.086l-0.053,-0.087l-0.051,-0.088l-0.049,-0.089l-0.048,-0.091l-0.046,-0.09l-0.045,-0.092l-0.043,-0.093l-0.041,-0.094l-0.04,-0.095l-0.038,-0.095l-0.036,-0.097l-0.034,-0.097l-0.033,-0.098l-0.031,-0.099l-0.029,-0.1l-0.028,-0.1l-0.025,-0.101l-0.024,-0.102l-0.021,-0.097l-0.009,-0.062l-0.004,-0.063l0.003,-0.062l0.01,-0.062l0.016,-0.061l0.023,-0.059l0.028,-0.056l0.035,-0.053l0.039,-0.048l0.045,-0.045l0.048,-0.039l0.053,-0.035l0.056,-0.028l0.059,-0.023l0.06,-0.016l0.062,-0.01l0.063,-0.003l0.892,0l0.029,-0.001l0.02,-0.001l0.02,-0.003l0.02,-0.003l0.019,-0.005l0.019,-0.005l0.018,-0.006l0.018,-0.007l0.018,-0.008l0.017,-0.009l0.017,-0.01l0.016,-0.01l0.016,-0.011l0.015,-0.012l0.015,-0.013l0.014,-0.013l0.013,-0.014l0.013,-0.015l0.012,-0.015l0.011,-0.016l0.01,-0.016l0.01,-0.017l0.009,-0.017l0.008,-0.018l0.007,-0.018l0.006,-0.018l0.005,-0.019l0.005,-0.019l0.003,-0.02l0.003,-0.019l0.001,-0.021l0.001,-0.021l-0.001,-0.021l-0.001,-0.02l-0.003,-0.02l-0.003,-0.02l-0.005,-0.019l-0.005,-0.018l-0.006,-0.019l-0.007,-0.018l-0.008,-0.017l-0.009,-0.017l-0.009,-0.017l-0.011,-0.016l-0.011,-0.016l-0.012,-0.015l-0.012,-0.015l-0.014,-0.014l-0.014,-0.013l-0.014,-0.013l-0.015,-0.012l-0.016,-0.011l-0.016,-0.01l-0.017,-0.01l-0.017,-0.009l-0.017,-0.008l-0.018,-0.007l-0.018,-0.006l-0.019,-0.006l-0.019,-0.004l-0.019,-0.004l-0.02,-0.002l-0.02,-0.002l-0.028,-0.001l-0.896,0l-0.063,-0.003l-0.062,-0.01l-0.06,-0.016l-0.059,-0.023l-0.056,-0.028l-0.053,-0.035l-0.048,-0.039l-0.045,-0.045l-0.039,-0.048l-0.035,-0.053l-0.028,-0.056l-0.023,-0.059l-0.016,-0.061l-0.01,-0.062l-0.003,-0.062l0.004,-0.063l0.009,-0.062l0.021,-0.097l0.024,-0.102l0.025,-0.101l0.028,-0.1l0.029,-0.1l0.031,-0.099l0.033,-0.098l0.034,-0.097l0.036,-0.097l0.038,-0.095l0.04,-0.095l0.041,-0.094l0.043,-0.093l0.045,-0.092l0.046,-0.09l0.048,-0.091l0.049,-0.089l0.051,-0.088l0.053,-0.087l0.053,-0.086l0.056,-0.084l0.057,-0.084l0.058,-0.083l0.06,-0.082l0.062,-0.08l0.062,-0.079l0.064,-0.079l0.066,-0.077l0.067,-0.075l0.068,-0.075l0.069,-0.073l0.071,-0.072l0.072,-0.071l0.073,-0.069l0.075,-0.068l0.075,-0.067l0.077,-0.066l0.079,-0.064l0.079,-0.062l0.08,-0.062l0.082,-0.06l0.083,-0.058l0.084,-0.057l0.084,-0.056l0.086,-0.053l0.087,-0.053l0.088,-0.051l0.089,-0.049l0.091,-0.048l0.091,-0.046l0.091,-0.045l0.093,-0.043l0.094,-0.041l0.095,-0.04l0.095,-0.038l0.097,-0.036l0.097,-0.034l0.098,-0.033l0.099,-0.031l0.1,-0.029l0.1,-0.028l0.101,-0.025l0.102,-0.024l0.097,-0.021l0.062,-0.009l0.063,-0.004l0.062,0.003l0.062,0.01l0.061,0.016l0.059,0.023l0.056,0.028l0.053,0.035l0.048,0.039l0.045,0.045l0.039,0.048l0.035,0.053l0.028,0.056l0.023,0.059l0.016,0.06l0.01,0.062l0.003,0.063l0,0.892l0.001,0.029l0.001,0.021l0.003,0.019l0.003,0.02l0.005,0.019l0.005,0.019l0.006,0.018l0.007,0.018l0.008,0.018l0.009,0.017l0.01,0.017l0.01,0.016l0.011,0.016l0.012,0.015l0.013,0.015l0.013,0.014l0.014,0.013l0.015,0.013l0.015,0.012l0.016,0.011l0.016,0.01l0.017,0.01l0.017,0.009l0.018,0.008l0.018,0.007l0.018,0.006l0.019,0.005l0.019,0.005l0.02,0.003l0.019,0.003l0.021,0.001l0.021,0.001l0.021,-0.001l0.021,-0.001l0.019,-0.003l0.02,-0.003l0.019,-0.005l0.019,-0.005l0.018,-0.006l0.018,-0.007l0.018,-0.008l0.017,-0.009l0.017,-0.01l0.016,-0.01l0.016,-0.011l0.015,-0.012l0.015,-0.013l0.014,-0.013l0.013,-0.014l0.013,-0.015l0.012,-0.015l0.011,-0.016l0.01,-0.016l0.01,-0.017l0.009,-0.017l0.008,-0.018l0.007,-0.018l0.006,-0.018l0.005,-0.019l0.005,-0.019l0.003,-0.02l0.003,-0.019l0.001,-0.021l0.001,-0.029l0,-0.892l0.003,-0.063l0.01,-0.062l0.016,-0.06l0.023,-0.059l0.028,-0.056l0.035,-0.053l0.039,-0.048l0.045,-0.045l0.048,-0.039l0.053,-0.035l0.056,-0.028l0.059,-0.023l0.061,-0.016l0.062,-0.01l0.062,-0.003l0.063,0.004Zm-2.154,0.616l-0.091,0.021l-0.091,0.023l-0.089,0.024l-0.089,0.026l-0.088,0.028l-0.088,0.029l-0.086,0.031l-0.086,0.032l-0.086,0.034l-0.084,0.035l-0.084,0.037l-0.083,0.038l-0.082,0.04l-0.081,0.041l-0.08,0.043l-0.08,0.044l-0.078,0.046l-0.078,0.047l-0.077,0.048l-0.076,0.049l-0.075,0.051l-0.073,0.052l-0.073,0.054l-0.072,0.055l-0.071,0.056l-0.07,0.057l-0.069,0.058l-0.067,0.06l-0.067,0.061l-0.065,0.062l-0.065,0.063l-0.063,0.065l-0.062,0.065l-0.061,0.067l-0.06,0.067l-0.058,0.069l-0.057,0.07l-0.056,0.071l-0.055,0.072l-0.054,0.073l-0.052,0.073l-0.051,0.075l-0.049,0.076l-0.048,0.077l-0.047,0.078l-0.046,0.078l-0.044,0.08l-0.043,0.08l-0.041,0.081l-0.04,0.082l-0.038,0.083l-0.037,0.084l-0.035,0.084l-0.034,0.086l-0.032,0.086l-0.031,0.086l-0.029,0.088l-0.028,0.088l-0.026,0.089l-0.024,0.089l-0.023,0.091l-0.021,0.091l-0.02,0.091l0.9,0l0.006,0l0.052,0.002l0.05,0.004l0.05,0.006l0.049,0.009l0.048,0.012l0.047,0.013l0.046,0.016l0.045,0.018l0.044,0.021l0.043,0.022l0.042,0.024l0.04,0.026l0.039,0.028l0.038,0.03l0.036,0.031l0.034,0.033l0.033,0.035l0.031,0.036l0.03,0.038l0.027,0.039l0.026,0.04l0.024,0.042l0.022,0.043l0.02,0.044l0.018,0.046l0.015,0.046l0.014,0.047l0.011,0.048l0.009,0.049l0.006,0.05l0.004,0.051l0.001,0.051l-0.001,0.051l-0.004,0.051l-0.007,0.05l-0.008,0.049l-0.012,0.049l-0.013,0.047l-0.016,0.047l-0.018,0.045l-0.02,0.044l-0.022,0.043l-0.024,0.042l-0.026,0.041l-0.028,0.039l-0.029,0.038l-0.032,0.036l-0.033,0.035l-0.035,0.033l-0.036,0.032l-0.038,0.029l-0.039,0.028l-0.041,0.026l-0.042,0.024l-0.043,0.022l-0.044,0.02l-0.045,0.018l-0.047,0.016l-0.047,0.013l-0.049,0.012l-0.049,0.008l-0.05,0.007l-0.051,0.004l-0.051,0.001l-0.9,0l0.02,0.091l0.021,0.091l0.023,0.091l0.024,0.089l0.026,0.089l0.028,0.088l0.029,0.088l0.031,0.086l0.032,0.086l0.034,0.086l0.035,0.084l0.037,0.084l0.038,0.083l0.04,0.082l0.041,0.081l0.043,0.08l0.044,0.08l0.046,0.078l0.047,0.078l0.048,0.077l0.049,0.076l0.051,0.075l0.052,0.073l0.054,0.073l0.055,0.072l0.056,0.071l0.057,0.07l0.058,0.069l0.06,0.067l0.061,0.067l0.062,0.065l0.063,0.065l0.065,0.063l0.065,0.062l0.067,0.061l0.067,0.06l0.069,0.058l0.07,0.057l0.071,0.056l0.072,0.055l0.073,0.054l0.073,0.052l0.075,0.051l0.076,0.049l0.077,0.048l0.078,0.047l0.078,0.046l0.08,0.044l0.08,0.043l0.081,0.041l0.082,0.04l0.083,0.038l0.084,0.037l0.084,0.035l0.086,0.034l0.086,0.032l0.086,0.031l0.088,0.029l0.088,0.028l0.089,0.026l0.089,0.024l0.091,0.023l0.091,0.021l0.091,0.02l0,-0.9l0.001,-0.051l0.004,-0.051l0.007,-0.05l0.008,-0.049l0.012,-0.049l0.013,-0.047l0.016,-0.047l0.018,-0.045l0.02,-0.044l0.022,-0.043l0.024,-0.042l0.026,-0.041l0.028,-0.039l0.029,-0.038l0.032,-0.036l0.033,-0.035l0.035,-0.033l0.036,-0.032l0.038,-0.029l0.039,-0.028l0.041,-0.026l0.042,-0.024l0.043,-0.022l0.044,-0.02l0.045,-0.018l0.047,-0.016l0.047,-0.013l0.049,-0.012l0.049,-0.008l0.05,-0.007l0.051,-0.004l0.051,-0.001l0.051,0.001l0.051,0.004l0.05,0.007l0.049,0.008l0.049,0.012l0.047,0.013l0.047,0.016l0.045,0.018l0.044,0.02l0.043,0.022l0.042,0.024l0.041,0.026l0.039,0.028l0.038,0.029l0.036,0.032l0.035,0.033l0.033,0.035l0.032,0.036l0.029,0.038l0.028,0.039l0.026,0.041l0.024,0.042l0.022,0.043l0.02,0.044l0.018,0.045l0.016,0.047l0.013,0.047l0.012,0.049l0.008,0.049l0.007,0.05l0.004,0.051l0.001,0.051l0,0.9l0.091,-0.02l0.091,-0.021l0.091,-0.023l0.089,-0.024l0.089,-0.026l0.088,-0.028l0.088,-0.029l0.086,-0.031l0.086,-0.032l0.086,-0.034l0.084,-0.035l0.084,-0.037l0.083,-0.038l0.082,-0.04l0.081,-0.041l0.08,-0.043l0.08,-0.044l0.078,-0.046l0.078,-0.047l0.077,-0.048l0.076,-0.049l0.075,-0.051l0.073,-0.052l0.073,-0.054l0.072,-0.055l0.071,-0.056l0.07,-0.057l0.069,-0.058l0.067,-0.06l0.067,-0.061l0.065,-0.062l0.065,-0.063l0.063,-0.065l0.062,-0.065l0.061,-0.067l0.06,-0.067l0.058,-0.069l0.057,-0.07l0.056,-0.071l0.055,-0.072l0.054,-0.073l0.052,-0.073l0.051,-0.075l0.049,-0.076l0.048,-0.077l0.047,-0.078l0.046,-0.078l0.044,-0.08l0.043,-0.08l0.041,-0.081l0.04,-0.082l0.038,-0.083l0.037,-0.084l0.035,-0.084l0.034,-0.086l0.032,-0.086l0.031,-0.086l0.029,-0.088l0.028,-0.088l0.026,-0.089l0.024,-0.089l0.023,-0.091l0.021,-0.091l0.02,-0.091l-0.9,0l-0.006,0l-0.052,-0.002l-0.05,-0.004l-0.05,-0.006l-0.049,-0.009l-0.048,-0.012l-0.047,-0.013l-0.046,-0.016l-0.045,-0.018l-0.044,-0.021l-0.043,-0.022l-0.042,-0.024l-0.04,-0.026l-0.039,-0.028l-0.038,-0.03l-0.036,-0.031l-0.034,-0.033l-0.033,-0.035l-0.031,-0.036l-0.03,-0.038l-0.027,-0.039l-0.026,-0.04l-0.024,-0.042l-0.022,-0.043l-0.02,-0.044l-0.018,-0.046l-0.015,-0.046l-0.014,-0.047l-0.011,-0.048l-0.009,-0.049l-0.006,-0.05l-0.004,-0.051l-0.001,-0.051l0.001,-0.051l0.004,-0.051l0.007,-0.05l0.008,-0.049l0.012,-0.049l0.013,-0.047l0.016,-0.047l0.018,-0.045l0.02,-0.044l0.022,-0.043l0.024,-0.042l0.026,-0.041l0.028,-0.039l0.029,-0.038l0.032,-0.036l0.033,-0.035l0.035,-0.033l0.036,-0.032l0.038,-0.029l0.039,-0.028l0.041,-0.026l0.042,-0.024l0.043,-0.022l0.044,-0.02l0.045,-0.018l0.047,-0.016l0.047,-0.013l0.049,-0.012l0.049,-0.008l0.05,-0.007l0.051,-0.004l0.051,-0.001l0.9,0l-0.02,-0.091l-0.021,-0.091l-0.023,-0.091l-0.024,-0.089l-0.026,-0.089l-0.028,-0.088l-0.029,-0.088l-0.031,-0.086l-0.032,-0.086l-0.034,-0.086l-0.035,-0.084l-0.037,-0.084l-0.038,-0.083l-0.04,-0.082l-0.041,-0.081l-0.043,-0.08l-0.044,-0.08l-0.046,-0.078l-0.047,-0.078l-0.048,-0.077l-0.049,-0.076l-0.051,-0.075l-0.052,-0.073l-0.054,-0.073l-0.055,-0.072l-0.056,-0.071l-0.057,-0.07l-0.058,-0.069l-0.06,-0.067l-0.061,-0.067l-0.062,-0.065l-0.063,-0.065l-0.065,-0.063l-0.065,-0.062l-0.067,-0.061l-0.067,-0.06l-0.069,-0.058l-0.07,-0.057l-0.071,-0.056l-0.072,-0.055l-0.073,-0.054l-0.073,-0.052l-0.075,-0.051l-0.076,-0.049l-0.077,-0.048l-0.078,-0.047l-0.078,-0.046l-0.08,-0.044l-0.08,-0.043l-0.081,-0.041l-0.082,-0.04l-0.083,-0.038l-0.084,-0.037l-0.084,-0.035l-0.086,-0.034l-0.086,-0.032l-0.086,-0.031l-0.088,-0.029l-0.088,-0.028l-0.089,-0.026l-0.089,-0.024l-0.091,-0.023l-0.091,-0.021l-0.091,-0.02l0,0.9l-0.001,0.051l-0.004,0.051l-0.007,0.05l-0.008,0.049l-0.012,0.049l-0.013,0.047l-0.016,0.047l-0.018,0.045l-0.02,0.044l-0.022,0.043l-0.024,0.042l-0.026,0.041l-0.028,0.039l-0.029,0.038l-0.032,0.036l-0.033,0.035l-0.035,0.033l-0.036,0.032l-0.038,0.029l-0.039,0.028l-0.041,0.026l-0.042,0.024l-0.043,0.022l-0.044,0.02l-0.045,0.018l-0.047,0.016l-0.047,0.013l-0.049,0.012l-0.049,0.008l-0.05,0.007l-0.051,0.004l-0.051,0.001l-0.051,-0.001l-0.051,-0.004l-0.05,-0.007l-0.049,-0.008l-0.049,-0.012l-0.047,-0.013l-0.047,-0.016l-0.045,-0.018l-0.044,-0.02l-0.043,-0.022l-0.042,-0.024l-0.041,-0.026l-0.039,-0.028l-0.038,-0.029l-0.036,-0.032l-0.035,-0.033l-0.033,-0.035l-0.032,-0.036l-0.029,-0.038l-0.028,-0.039l-0.026,-0.041l-0.024,-0.042l-0.022,-0.043l-0.02,-0.044l-0.018,-0.045l-0.016,-0.047l-0.013,-0.047l-0.012,-0.049l-0.008,-0.049l-0.007,-0.05l-0.004,-0.051l-0.001,-0.051l0,-0.9l-0.091,0.02Z"/></g></svg>