<?xml version="1.0" encoding="UTF-8" standalone="no"?><!DOCTYPE svg PUBLIC "-//W3C//DTD SVG 1.1//EN" "http://www.w3.org/Graphics/SVG/1.1/DTD/svg11.dtd"><svg width="100%" height="100%" viewBox="0 0 18 18" version="1.1" xmlns="http://www.w3.org/2000/svg" xmlns:xlink="http://www.w3.org/1999/xlink" xml:space="preserve" xmlns:serif="http://www.serif.com/" style="fill-rule:evenodd;clip-rule:evenodd;stroke-linejoin:round;stroke-miterlimit:1.41421;"><g id="thick"><circle cx="9" cy="9" r="1"/><path d="M8,2.071l0,-1.071c0,-0.552 0.448,-1 1,-1c0.552,0 1,0.448 1,1l0,1.071c3.064,0.439 5.49,2.865 5.929,5.929l1.071,0c0.552,0 1,0.448 1,1c0,0.552 -0.448,1 -1,1l-1.071,0c-0.439,3.064 -2.865,5.49 -5.929,5.929l0,1.071c0,0.552 -0.448,1 -1,1c-0.552,0 -1,-0.448 -1,-1l0,-1.071c-3.064,-0.439 -5.49,-2.865 -5.929,-5.929l-1.071,0l-0.006,0c-0.549,-0.004 -0.994,-0.45 -0.994,-1c0,-0.552 0.448,-1 1,-1l1.071,0c0.439,-3.064 2.865,-5.49 5.929,-5.929Zm0,2.029c-1.958,0.398 -3.502,1.942 -3.9,3.9l0.9,0l0.006,0c0.549,0.004 0.994,0.45 0.994,1c0,0.552 -0.448,1 -1,1l-0.9,0c0.398,1.958 1.942,3.502 3.9,3.9l0,-0.9c0,-0.552 0.448,-1 1,-1c0.552,0 1,0.448 1,1l0,0.9c1.958,-0.398 3.502,-1.942 3.9,-3.9l-0.9,0l-0.006,0c-0.549,-0.004 -0.994,-0.45 -0.994,-1c0,-0.552 0.448,-1 1,-1l0.9,0c-0.398,-1.958 -1.942,-3.502 -3.9,-3.9l0,0.9c0,0.552 -0.448,1 -1,1c-0.552,0 -1,-0.448 -1,-1l0,-0.9Z"/></g></svg>