<?xml version="1.0" encoding="UTF-8" standalone="no"?><!DOCTYPE svg PUBLIC "-//W3C//DTD SVG 1.1//EN" "http://www.w3.org/Graphics/SVG/1.1/DTD/svg11.dtd"><svg width="100%" height="100%" viewBox="0 0 20 20" version="1.1" xmlns="http://www.w3.org/2000/svg" xmlns:xlink="http://www.w3.org/1999/xlink" xml:space="preserve" xmlns:serif="http://www.serif.com/" style="fill-rule:evenodd;clip-rule:evenodd;stroke-linejoin:round;stroke-miterlimit:1.41421;"><g id="thick"><path d="M1,0l6,0c0.552,0 1,0.448 1,1c0,0.552 -0.448,1 -1,1l-5,0l0,5c0,0.552 -0.448,1 -1,1c-0.552,0 -1,-0.448 -1,-1l0,-6c0,-0.552 0.448,-1 1,-1Z"/><path d="M19,0l-6,0c-0.552,0 -1,0.448 -1,1c0,0.552 0.448,1 1,1l5,0l0,5c0,0.552 0.448,1 1,1c0.552,0 1,-0.448 1,-1l0,-6c0,-0.552 -0.448,-1 -1,-1Z"/><path d="M1,20l6,0c0.552,0 1,-0.448 1,-1c0,-0.552 -0.448,-1 -1,-1l-5,0l0,-5c0,-0.552 -0.448,-1 -1,-1c-0.552,0 -1,0.448 -1,1l0,6c0,0.552 0.448,1 1,1Z"/><path d="M19,20l-6,0c-0.552,0 -1,-0.448 -1,-1c0,-0.552 0.448,-1 1,-1l5,0l0,-5c0,-0.552 0.448,-1 1,-1c0.552,0 1,0.448 1,1l0,6c0,0.552 -0.448,1 -1,1Z"/></g></svg>